<svg xmlns="http://www.w3.org/2000/svg" width="2500" height="1667" fill="none" viewBox="0 0 2500 1667"><mask id="a" width="2500" height="1667" x="0" y="0" maskUnits="userSpaceOnUse" style="mask-type:luminance"><path fill="#fff" d="M2500 0H0v1666.67h2500V0Z"></path></mask><g mask="url(#a)"><g filter="url(#b)"><path fill="#fff" d="M1983.13 622.915c186.05 0 336.87-150.824 336.87-336.875 0-186.05-150.82-336.875-336.87-336.875S1646.25 99.989 1646.25 286.04s150.83 336.875 336.88 336.875Z"></path><path fill="url(#c)" d="M1983.13 622.915c186.05 0 336.87-150.824 336.87-336.875 0-186.05-150.82-336.875-336.87-336.875S1646.25 99.989 1646.25 286.04s150.83 336.875 336.88 336.875Z"></path><path fill="#00B4C3" d="M1983.12 622.915c186.06 0 336.88-150.824 336.88-336.875 0-186.05-150.82-336.875-336.88-336.875-186.05 0-336.87 150.824-336.87 336.875s150.82 336.875 336.87 336.875Z" style="mix-blend-mode:overlay"></path><path fill="#fff" d="M342.708 962.916c256.007 0 463.541-207.534 463.541-463.541S598.715 35.833 342.708 35.833s-463.542 207.535-463.542 463.542c0 256.007 207.535 463.541 463.542 463.541Z"></path><path fill="url(#d)" d="M342.708 962.916c256.007 0 463.541-207.534 463.541-463.541S598.715 35.833 342.708 35.833s-463.542 207.535-463.542 463.542c0 256.007 207.535 463.541 463.542 463.541Z"></path><path fill="#0068FF" d="M342.708 962.915c256.007 0 463.541-207.534 463.541-463.541S598.715 35.832 342.708 35.832s-463.542 207.535-463.542 463.542c0 256.007 207.535 463.541 463.542 463.541Z" style="mix-blend-mode:overlay"></path></g><g filter="url(#e)"><path fill="#fff" d="M1572.29 194.583c62.25 0 112.71-50.462 112.71-112.709s-50.46-112.708-112.71-112.708c-62.24 0-112.71 50.461-112.71 112.708s50.47 112.709 112.71 112.709Z"></path><path fill="url(#f)" d="M1572.29 194.583c62.25 0 112.71-50.462 112.71-112.709s-50.46-112.708-112.71-112.708c-62.24 0-112.71 50.461-112.71 112.708s50.47 112.709 112.71 112.709Z"></path></g><g filter="url(#g)"><path fill="#fff" d="M2348.13 625.415c101.37 0 183.54-82.174 183.54-183.541 0-101.368-82.17-183.542-183.54-183.542-101.37 0-183.54 82.174-183.54 183.542 0 101.367 82.17 183.541 183.54 183.541Z"></path><path fill="url(#h)" d="M2348.13 625.415c101.37 0 183.54-82.174 183.54-183.541 0-101.368-82.17-183.542-183.54-183.542-101.37 0-183.54 82.174-183.54 183.542 0 101.367 82.17 183.541 183.54 183.541Z"></path></g><path fill="#fff" d="M1796.25 454.582c20.25 0 36.67-16.416 36.67-36.666 0-20.251-16.42-36.667-36.67-36.667s-36.66 16.416-36.66 36.667c0 20.25 16.41 36.666 36.66 36.666Z"></path><path fill="url(#i)" d="M1796.25 454.582c20.25 0 36.67-16.416 36.67-36.666 0-20.251-16.42-36.667-36.67-36.667s-36.66 16.416-36.66 36.667c0 20.25 16.41 36.666 36.66 36.666Z"></path><path fill="#fff" d="M2185.63 200.416c36.24 0 65.62-29.381 65.62-65.625s-29.38-65.625-65.62-65.625c-36.25 0-65.63 29.381-65.63 65.625s29.38 65.625 65.63 65.625Z"></path><path fill="url(#j)" d="M2185.63 200.416c36.24 0 65.62-29.381 65.62-65.625s-29.38-65.625-65.62-65.625c-36.25 0-65.63 29.381-65.63 65.625s29.38 65.625 65.63 65.625Z"></path></g><defs><radialGradient id="c" cx="0" cy="0" r="1" gradientTransform="matrix(510.77611 535.3584 -432.5458 412.68441 1809.23 116.692)" gradientUnits="userSpaceOnUse"><stop stop-color="#fff"></stop><stop offset=".221" stop-color="#F3F5F7" stop-opacity=".557"></stop><stop offset=".596" stop-color="#CFD6E8"></stop><stop offset="1" stop-color="#D8DEEB"></stop></radialGradient><radialGradient id="d" cx="0" cy="0" r="1" gradientTransform="rotate(46.346 -259.416 253.98) scale(1018.15 822.621)" gradientUnits="userSpaceOnUse"><stop stop-color="#fff"></stop><stop offset=".221" stop-color="#F3F5F7" stop-opacity=".557"></stop><stop offset=".596" stop-color="#CFD6E8"></stop><stop offset="1" stop-color="#D8DEEB"></stop></radialGradient><radialGradient id="f" cx="0" cy="0" r="1" gradientTransform="matrix(170.8901 179.11458 -144.71686 138.07183 1514.11 25.216)" gradientUnits="userSpaceOnUse"><stop stop-color="#fff"></stop><stop offset=".221" stop-color="#F3F5F7" stop-opacity=".557"></stop><stop offset=".596" stop-color="#CFD6E8"></stop><stop offset="1" stop-color="#D8DEEB"></stop></radialGradient><radialGradient id="h" cx="0" cy="0" r="1" gradientTransform="rotate(46.346 718.312 2806.987) scale(403.142 325.722)" gradientUnits="userSpaceOnUse"><stop stop-color="#fff"></stop><stop offset=".221" stop-color="#F3F5F7" stop-opacity=".557"></stop><stop offset=".596" stop-color="#CFD6E8"></stop><stop offset="1" stop-color="#D8DEEB"></stop></radialGradient><radialGradient id="i" cx="0" cy="0" r="1" gradientTransform="matrix(55.59452 58.27014 -47.07992 44.91813 1777.32 399.483)" gradientUnits="userSpaceOnUse"><stop stop-color="#fff"></stop><stop offset=".221" stop-color="#F3F5F7" stop-opacity=".557"></stop><stop offset=".596" stop-color="#CFD6E8"></stop><stop offset="1" stop-color="#D8DEEB"></stop></radialGradient><radialGradient id="j" cx="0" cy="0" r="1" gradientTransform="rotate(46.346 956.96 2564.37) scale(144.143 116.461)" gradientUnits="userSpaceOnUse"><stop stop-color="#fff"></stop><stop offset=".221" stop-color="#F3F5F7" stop-opacity=".557"></stop><stop offset=".596" stop-color="#CFD6E8"></stop><stop offset="1" stop-color="#D8DEEB"></stop></radialGradient><filter id="b" width="2960.83" height="1533.75" x="-380.834" y="-310.835" color-interpolation-filters="sRGB" filterUnits="userSpaceOnUse"><feGaussianBlur result="effect1_foregroundBlur_2592_80" stdDeviation="130"></feGaussianBlur></filter><filter id="e" width="375.417" height="375.417" x="1384.58" y="-105.834" color-interpolation-filters="sRGB" filterUnits="userSpaceOnUse"><feGaussianBlur result="effect1_foregroundBlur_2592_80" stdDeviation="37.5"></feGaussianBlur></filter><filter id="g" width="407.083" height="407.083" x="2144.59" y="238.332" color-interpolation-filters="sRGB" filterUnits="userSpaceOnUse"><feGaussianBlur result="effect1_foregroundBlur_2592_80" stdDeviation="10"></feGaussianBlur></filter></defs></svg>